<?xml version="1.0" standalone="no"?>
<!DOCTYPE svg PUBLIC "-//W3C//DTD SVG 20010904//EN"
 "http://www.w3.org/TR/2001/REC-SVG-20010904/DTD/svg10.dtd">
<svg version="1.0" xmlns="http://www.w3.org/2000/svg"
 width="802.000000pt" height="802.000000pt" viewBox="0 0 802.000000 802.000000"
 preserveAspectRatio="xMidYMid meet">
<metadata>
Created by potrace 1.14, written by Peter Selinger 2001-2017
</metadata>
<g transform="translate(0.000000,802.000000) scale(0.100000,-0.100000)"
fill="#000000" stroke="none">
<path d="M242 6397 c-23 -27 -26 -90 -8 -126 21 -39 37 -46 151 -65 162 -27
303 -86 403 -167 69 -57 156 -170 228 -298 50 -90 404 -880 404 -903 0 -4
-270 -8 -600 -8 l-600 0 0 -825 0 -825 963 0 963 0 334 -765 c183 -420 341
-772 351 -781 10 -9 38 -19 62 -21 36 -4 48 -1 74 21 21 18 162 265 449 786
l417 760 259 -2 259 -3 363 -758 c199 -416 371 -767 383 -778 31 -31 101 -37
133 -11 19 15 118 228 365 786 l340 765 933 1 932 0 0 825 0 825 -565 2 -565
3 179 403 c278 623 356 754 518 862 87 58 151 83 279 109 73 14 103 25 121 43
32 33 42 98 19 133 -15 23 -22 25 -89 25 -39 0 -178 -9 -307 -20 -293 -25
-390 -25 -710 0 -140 11 -287 20 -327 20 -65 0 -73 -2 -92 -26 -24 -31 -28
-95 -8 -134 11 -22 23 -26 102 -36 189 -26 288 -81 346 -193 41 -79 37 -245
-8 -381 -18 -53 -333 -792 -342 -803 -4 -4 -363 -6 -799 -5 l-791 3 197 365
c449 829 554 941 941 1011 57 11 106 19 108 19 2 0 11 16 19 35 19 46 18 95
-3 124 -16 24 -17 24 -157 17 -78 -4 -222 -14 -321 -21 -241 -19 -338 -19
-667 5 -153 12 -306 20 -340 18 -54 -3 -63 -6 -82 -31 -23 -31 -27 -116 -7
-141 6 -7 43 -17 82 -20 263 -26 391 -132 390 -324 0 -138 -25 -195 -354 -807
l-135 -250 -89 -3 -89 -3 -231 473 c-127 260 -241 504 -252 542 -23 75 -27
149 -10 193 34 90 180 159 379 179 65 6 72 9 82 33 13 33 5 125 -11 145 -18
22 -135 21 -486 -4 -334 -24 -542 -25 -765 -5 -91 8 -237 18 -325 22 -184 7
-185 7 -193 -77 -4 -44 -1 -52 25 -78 20 -21 43 -31 78 -36 28 -4 83 -16 123
-27 251 -67 330 -175 712 -979 95 -201 175 -368 177 -372 2 -5 -317 -8 -709
-8 l-714 0 -179 403 c-203 458 -235 541 -235 613 0 191 148 323 410 365 41 7
80 16 87 21 29 23 27 133 -4 163 -20 20 -129 19 -543 -5 -400 -24 -588 -25
-855 -5 -110 8 -281 18 -380 22 -158 5 -182 4 -193 -10z m2183 -2006 c73 -32
131 -125 155 -249 17 -86 8 -339 -15 -412 -22 -70 -66 -134 -116 -167 -47 -31
-154 -43 -223 -23 -132 37 -199 180 -200 425 -1 267 61 402 201 441 58 17 141
10 198 -15z m688 5 c80 -33 136 -118 164 -249 22 -104 13 -328 -16 -419 -42
-132 -112 -190 -238 -196 -86 -5 -127 7 -181 53 -71 61 -108 165 -118 330 -14
219 38 400 133 462 63 42 182 51 256 19z m1025 -2 c117 -49 176 -191 176 -424
-1 -304 -88 -440 -282 -440 -128 0 -210 64 -254 200 -16 51 -22 98 -25 215 -7
246 31 368 137 432 29 18 64 34 79 36 42 8 129 -2 169 -19z m710 -11 c59 -28
89 -62 129 -148 23 -51 27 -77 31 -170 10 -260 -63 -432 -213 -505 -44 -21
-65 -24 -165 -24 l-115 -1 -3 40 -3 40 103 0 c87 0 110 4 144 22 85 45 137
139 150 270 l7 68 -39 -36 c-60 -57 -99 -72 -179 -72 -88 0 -145 23 -189 74
-42 50 -56 98 -56 195 0 62 5 90 24 129 63 137 226 188 374 118z m-1274 -202
c27 -29 18 -99 -15 -124 -23 -17 -31 -18 -62 -8 -19 7 -38 19 -41 27 -12 30
-6 88 11 106 22 25 84 24 107 -1z m1964 -171 c57 -35 77 -95 77 -230 0 -100
-3 -121 -23 -162 -30 -60 -63 -82 -129 -82 -65 -1 -99 22 -133 90 -22 44 -25
61 -25 159 1 91 5 118 22 157 27 59 71 88 133 88 28 0 58 -8 78 -20z m442 -10
c0 -19 -7 -20 -94 -20 -52 0 -97 -3 -99 -7 -3 -5 -8 -38 -12 -75 l-7 -68 66 0
c37 0 82 -6 101 -14 88 -37 100 -172 23 -244 -37 -34 -123 -49 -192 -33 -50
11 -56 15 -56 38 0 20 3 24 18 17 9 -4 49 -9 88 -12 65 -4 72 -2 103 23 30 26
32 31 29 83 -3 52 -6 58 -38 80 -32 22 -42 23 -107 18 -43 -3 -74 -2 -78 4 -3
5 -3 59 1 120 l7 110 123 0 c117 0 124 -1 124 -20z m-2402 -347 c7 -10 12 -36
10 -57 -5 -69 -75 -97 -122 -50 -25 25 -21 99 7 119 27 20 86 13 105 -12z
m1630 -71 c4 -28 -14 -52 -38 -52 -26 0 -43 26 -36 55 6 22 11 26 39 23 25 -2
33 -8 35 -26z m-1694 -434 c-48 -94 -319 -606 -331 -627 -14 -23 -21 -10 -159
300 -79 178 -147 332 -150 341 -5 17 15 18 326 18 l331 0 -17 -32z m2117 10
c-5 -13 -66 -153 -135 -313 l-125 -290 -150 307 c-83 169 -151 310 -151 313 0
3 128 5 285 5 l285 0 -9 -22z"/>
<path d="M2244 4320 c-31 -12 -82 -75 -94 -117 -45 -155 -29 -433 30 -529 24
-38 74 -64 124 -64 128 0 186 110 186 358 0 200 -34 306 -110 344 -37 19 -101
23 -136 8z"/>
<path d="M2930 4312 c-83 -43 -126 -232 -102 -448 20 -177 63 -244 166 -251
140 -11 205 126 193 407 -8 176 -39 260 -111 294 -45 21 -103 20 -146 -2z"/>
<path d="M3950 4307 c-72 -47 -100 -140 -100 -326 0 -200 26 -295 93 -345 39
-29 134 -29 174 -1 75 55 111 223 93 434 -11 124 -43 202 -99 239 -46 30 -116
30 -161 -1z"/>
<path d="M4644 4316 c-71 -32 -110 -130 -93 -236 10 -66 39 -105 94 -126 131
-50 275 47 263 176 -6 63 -43 135 -85 167 -42 32 -130 42 -179 19z"/>
<path d="M5420 3978 c-45 -23 -60 -71 -60 -189 0 -158 24 -209 99 -209 78 0
105 51 105 200 0 100 -13 157 -43 184 -25 22 -72 29 -101 14z"/>
</g>
</svg>
