<svg width="25" height="26" fill="none" xmlns="http://www.w3.org/2000/svg">
<path d="M12.5 25L24.5 20.5V5M12.5 25V9M12.5 25L0.5 20.5V5M24.5 5L12.5 9M24.5 5L12.5 1L0.5 5M12.5 9L0.5 5" stroke="currentColor"/>
<ellipse cx="20.5" cy="11" rx="2" ry="1.5" transform="rotate(90 20.5 11)" fill="currentColor"/>
<ellipse cx="12" cy="4.5" rx="2" ry="1.5" transform="rotate(-180 12 4.5)" fill="currentColor"/>
<ellipse cx="16.5" cy="19" rx="2" ry="1.5" transform="rotate(90 16.5 19)" fill="currentColor"/>
<ellipse cx="18.5" cy="15" rx="2" ry="1.5" transform="rotate(90 18.5 15)" fill="currentColor"/>
<ellipse rx="2" ry="1.5" transform="matrix(-4.37114e-08 -1 -1 4.37114e-08 8.5 19)" fill="currentColor"/>
<ellipse rx="2" ry="1.5" transform="matrix(-4.37114e-08 -1 -1 4.37114e-08 4.5 11)" fill="currentColor"/>
</svg>
